<?xml version="1.0" encoding="UTF-8"?>
<svg id="Camada_2" data-name="Camada 2" xmlns="http://www.w3.org/2000/svg" viewBox="0 0 219.48 91.04">
  <defs>
    <style>
      .cls-1 {
        fill: #ed1d24;
      }

      .cls-2 {
        fill: #fff;
      }
    </style>
  </defs>
  <g id="Camada_1-2" data-name="Camada 1">
    <g>
      <path class="cls-1" d="M89.41,27.32L95.35,0h41.16c2.75,0,5.42,1.22,7,3.47.68.97,1.17,3.47,1.17,3.47l6.41,49.16,26.71-48.37C179.41,5.46,182.64,0,188.08,0h31.4l-48.89,82.87c-3.39,4.84-8.39,7.76-14.29,8.17l-34.64-.04-11.26-63.69h-20.99Z"/>
      <path class="cls-2" d="M87.07,0l-6.19,28.89c-4.54-7.35-12.66-12.25-21.95-12.25-1.73,0-16.4,1.35-16.4,1.35L46.59,0h40.48Z"/>
      <path class="cls-2" d="M113.58,91.03H26.03l5.74-25.45s24.85,2.6,27.16,2.6c5.65,0,10.88-1.82,15.11-4.88h34.65l4.88,27.73Z"/>
      <path class="cls-2" d="M58.93,20.44c-1.82,0-3.56.22-5.24.63l-42.09,2.84,32.03,2.74c-1.01.96-2.55,2.81-2.55,2.81l-36.98,2.96,34.03,2.91c-.31.89-.55,1.82-.74,2.76L0,40.96l37.01,2.88c.05,1.03.19,2.02.39,3l-33.18,2.64,35.11,2.86c.51,1.03,1.11,2.02,1.8,2.95l-33.91,2.71,39.72,2.83c3.44,2.26,7.56,3.56,11.98,3.56,12.13,0,21.97-9.84,21.97-21.97s-9.84-21.97-21.97-21.97ZM58.93,55.8c-7.39,0-13.38-6-13.38-13.38s6-13.38,13.38-13.38,13.38,6,13.38,13.38-6,13.38-13.38,13.38Z"/>
      <path class="cls-2" d="M56.84,33.07v3.98c0,1.28-.84,1.83-1.6,1.51l-4.07-1.74c-.73-.31-.94-1.25-.4-1.84,1.23-1.35,2.78-2.39,4.54-2.99.75-.26,1.53.3,1.53,1.09Z"/>
      <path class="cls-2" d="M63.66,50.72c.53.58.35,1.52-.37,1.83-1.34.58-2.8.9-4.35.9s-3.03-.32-4.37-.9c-.72-.31-.9-1.26-.37-1.83l3.89-4.22c.45-.49,1.23-.49,1.69,0l3.88,4.22Z"/>
      <path class="cls-2" d="M66.73,36.84l-3.69,1.57c-1.18.5-2.02-.05-2.02-.87v-4.47c0-.78.77-1.35,1.51-1.1,1.79.61,3.37,1.67,4.61,3.05.52.58.3,1.51-.41,1.82Z"/>
      <path class="cls-2" d="M68.44,41.26l-3.78,1.32c-1.21.42-1.46,1.4-.9,2l3,3.3c.53.58,1.49.47,1.87-.22.9-1.65,1.35-3.48,1.35-5.32,0-.79-.79-1.34-1.53-1.08Z"/>
      <path class="cls-2" d="M49.51,41.26l3.78,1.32c1.21.42,1.46,1.4.9,2l-3,3.3c-.53.58-1.49.47-1.87-.22-.9-1.65-1.35-3.48-1.35-5.32,0-.79.79-1.34,1.53-1.08Z"/>
      <circle class="cls-2" cx="58.93" cy="42.41" r="2.09"/>
    </g>
  </g>
</svg>