<svg xmlns="http://www.w3.org/2000/svg" viewBox="450 250 1190 570" role="img" aria-labelledby="title" fill="none" stroke="#151515" stroke-width="4.5" stroke-linecap="round" stroke-linejoin="round" shape-rendering="geometricPrecision">
  <title id="title">Loja Veiculos logo outline escuro</title>
  <path id="roda-2" d="M852.99,428.83c-17.04,0-33.22,3.62-47.82,10.15h-317.5c-18.3,0-19.88,26.86-1.71,29l273.53,7.24c-2.71,3.57-5.23,7.31-7.53,11.19h-216.96c-17.99,0-19.97,26.23-2.19,28.94l205.16,7.34c-.77,3.81-1.36,7.69-1.76,11.62h-153.36c-17.56,0-20.09,25.34-2.88,28.82l158.72,9.84c.87,3.75,1.93,7.43,3.15,11.04h-109.31c-17.36,0-20.14,24.92-3.21,28.74l133.59,8.71c21.54,25.73,53.9,42.1,90.08,42.1,64.82,0,117.36-52.54,117.36-117.37s-52.54-117.36-117.36-117.36ZM872.06,627.49c-.41.1-.81.21-1.22.3-.13.03-.27.06-.41.09-.88.19-1.77.36-2.66.52-.69.12-1.38.24-2.06.35-4.13.65-8.35.98-12.66.98-2.91,0-5.78-.14-8.6-.46-.48-.04-.95-.1-1.43-.16-.9-.1-1.77-.24-2.66-.37-5.17-.81-10.21-2.11-15.01-3.85-1.74-.64-3.46-1.34-5.15-2.09-28.46-12.61-48.32-41.11-48.32-74.25,0-44.07,35.13-79.95,78.91-81.14.76-.02,1.51-.03,2.26-.03,4.23,0,8.38.33,12.43.94,38.93,5.99,68.75,39.64,68.75,80.23,0,38.3-26.51,70.39-62.17,78.94Z"/>
  <circle id="meio-2" cx="852.99" cy="546.2" r="12.19" fill="#151515" stroke="none"/>
  <path d="M862.71,487.92l1.8,33.78c.23,4.29,4.33,7.29,8.49,6.22l32.72-8.48c4.53-1.17,6.55-6.47,3.94-10.36-5.89-8.79-17.87-22.29-38.35-28.07-4.47-1.26-8.86,2.28-8.61,6.91Z" fill="#151515" stroke="none"/>
  <path d="M800.3,519.46l32.77,8.4c4.16,1.07,8.26-1.95,8.47-6.24l1.71-33.75c.24-4.68-4.21-8.19-8.7-6.87-10.15,2.99-26.62,10.37-38.27,28.17-2.54,3.89-.48,9.13,4.02,10.28Z" fill="#151515" stroke="none"/>
  <path d="M812.55,589.27l17.26-29.09c2.19-3.69.45-8.47-3.61-9.88l-31.92-11.12c-4.42-1.54-9.04,1.74-9.03,6.43.02,10.58,2.48,28.46,16.3,44.64,3.02,3.53,8.63,3.02,11-.97Z" fill="#151515" stroke="none"/>
  <path d="M911.66,539.21l-31.92,11.18c-4.05,1.42-5.79,6.2-3.59,9.89l17.3,29.04c2.4,4.02,8.05,4.48,11.05.89,6.79-8.11,16.4-23.39,16.22-44.67-.04-4.64-4.66-7.87-9.05-6.33Z" fill="#151515" stroke="none"/>
  <path d="M879.72,598.89l-21.48-26.13c-2.73-3.32-7.81-3.31-10.52.03l-21.32,26.23c-2.95,3.63-1.44,9.09,2.97,10.68,9.95,3.58,27.61,7.36,47.52-.13,4.35-1.63,5.78-7.08,2.83-10.67Z" fill="#151515" stroke="none"/>
  <path d="M1022,787.66h-428.36c-6.91,0-12.01-6.16-10.38-12.88l37.97-141.67,132.46,6.01c16.83,21.09,34.69,29.5,51.2,35.36,24.42,8.67,86.85,9.53,119.93,5.26,0,0,37.86-6.86,55.05-12.78,4.69-1.62,9.78.98,11.31,5.69,12.12,37.47,30.82,115.02,30.82,115.02Z"/>
  <path d="M907.28,292.33l-32.74,122.21c-20.21-2.09-47.2.8-68.99,7h-127.63l21.61-80.64c4.08-15.21,16.9-25.16,32.04-25.16h117.54c36.38,0,58.17-23.4,58.17-23.4Z"/>
  <path id="V" d="M1291.05,761.86c-8.15,13.41-24.62,25.8-46.88,25.8h-164.23c-14.68,0-25.23-12.6-28.79-25.87l-58.41-217.97c-17.21-64.23-34.14-100.72-91.32-122.28l21.61-80.64c4.29-16.01,14.27-25.14,31.84-25.14h143.4c17.87,0,31.28,11.85,36.06,29.68l72.65,271.14,158.82-264.43c24.81-34.4,61.23-36.78,101.41-36.41h74.46c22.09,0,54.23-23.4,54.23-23.4l-304.85,469.53Z"/>
</svg>
